<svg width="420" height="420" viewBox="0 0 420 420" fill="none" xmlns="http://www.w3.org/2000/svg">
<path d="M307.627 307.406C245.729 369.304 139.127 371.325 83.4741 307.405C29.9734 216.906 105.973 206.406 120.974 131.406C135.974 56.4056 211.126 13.3251 307.627 83.2526C369.525 145.151 369.525 245.507 307.627 307.406Z" stroke="url(#paint0_linear_691_1241)" stroke-width="36"/>
<path d="M231.479 117.906C231.479 110.174 225.211 103.906 217.479 103.906C209.747 103.906 203.479 110.174 203.479 117.906L231.479 117.906ZM231.479 217.406L231.479 117.906L203.479 117.906L203.479 217.406L231.479 217.406Z" fill="url(#paint1_linear_691_1241)"/>
<path d="M159.319 246.684C152.845 250.911 151.024 259.586 155.251 266.06C159.479 272.534 168.154 274.355 174.628 270.128L159.319 246.684ZM208.324 214.684L159.319 246.684L174.628 270.128L223.633 238.128L208.324 214.684Z" fill="url(#paint2_linear_691_1241)"/>
<path d="M238.973 220.906C238.973 232.493 229.358 241.906 217.473 241.906C205.588 241.906 195.973 232.493 195.973 220.906C195.973 209.318 205.588 199.906 217.473 199.906C229.358 199.906 238.973 209.318 238.973 220.906Z" fill="url(#paint3_linear_691_1241)" stroke="url(#paint4_linear_691_1241)"/>
<defs>
<linearGradient id="paint0_linear_691_1241" x1="322.039" y1="97.6646" x2="97.6646" y2="322.039" gradientUnits="userSpaceOnUse">
<stop stop-color="#EFA528"/>
<stop offset="1" stop-color="#ED1A43"/>
</linearGradient>
<linearGradient id="paint1_linear_691_1241" x1="202.173" y1="162.389" x2="232.785" y2="172.922" gradientUnits="userSpaceOnUse">
<stop stop-color="#EFA528"/>
<stop offset="1" stop-color="#ED1A43"/>
</linearGradient>
<linearGradient id="paint2_linear_691_1241" x1="203.999" y1="249.035" x2="178.954" y2="235.776" gradientUnits="userSpaceOnUse">
<stop stop-color="#EFA528"/>
<stop offset="1" stop-color="#ED1A43"/>
</linearGradient>
<linearGradient id="paint3_linear_691_1241" x1="217.473" y1="199.406" x2="217.473" y2="242.406" gradientUnits="userSpaceOnUse">
<stop stop-color="#EFA528"/>
<stop offset="1" stop-color="#ED1A43"/>
</linearGradient>
<linearGradient id="paint4_linear_691_1241" x1="217.473" y1="199.406" x2="217.473" y2="242.406" gradientUnits="userSpaceOnUse">
<stop stop-color="#EFA528"/>
<stop offset="1" stop-color="#ED1A43"/>
</linearGradient>
</defs>
</svg>
